<svg width="51" height="70" viewBox="0 0 51 70" fill="none" xmlns="http://www.w3.org/2000/svg">
<g opacity="0.5">
<mask id="path-1-outside-1_1_449" maskUnits="userSpaceOnUse" x="-7" y="-6" width="64" height="81" fill="black">
<rect fill="white" x="-7" y="-6" width="64" height="81"/>
<path d="M0.558992 69.1036H50.7079V56.9808H17.5516C24.0792 43.8219 50.8115 41.0244 50.8115 21.9595C50.8115 10.3548 42.4188 0.718738 26.4624 0.718738C11.7492 0.718738 2.00958 9.00781 0.248151 22.4776H16.2046C17.1371 16.8824 20.2455 13.5668 26.3587 13.5668C31.7466 13.5668 34.9587 16.6752 34.9587 22.1667C34.9587 36.569 0.558992 35.4292 0.558992 65.1663V69.1036Z"/>
</mask>
<path d="M0.558992 69.1036H50.7079V56.9808H17.5516C24.0792 43.8219 50.8115 41.0244 50.8115 21.9595C50.8115 10.3548 42.4188 0.718738 26.4624 0.718738C11.7492 0.718738 2.00958 9.00781 0.248151 22.4776H16.2046C17.1371 16.8824 20.2455 13.5668 26.3587 13.5668C31.7466 13.5668 34.9587 16.6752 34.9587 22.1667C34.9587 36.569 0.558992 35.4292 0.558992 65.1663V69.1036Z" fill="url(#paint0_linear_1_449)"/>
<path d="M0.558992 69.1036H-5.19731V74.8599H0.558992V69.1036ZM50.7079 69.1036V74.8599H56.4642V69.1036H50.7079ZM50.7079 56.9808H56.4642V51.2245H50.7079V56.9808ZM17.5516 56.9808L12.3949 54.4228L8.27047 62.7371H17.5516V56.9808ZM0.248151 22.4776L-5.45956 21.7312L-6.30991 28.2339H0.248151V22.4776ZM16.2046 22.4776V28.2339H21.0809L21.8826 23.4239L16.2046 22.4776ZM0.558992 74.8599H50.7079V63.3473H0.558992V74.8599ZM56.4642 69.1036V56.9808H44.9516V69.1036H56.4642ZM50.7079 51.2245H17.5516V62.7371H50.7079V51.2245ZM22.7083 59.5389C23.702 57.5358 25.6595 55.5674 28.816 53.3452C32.12 51.0191 35.51 49.1952 39.6991 46.5544C47.2518 41.7932 56.5678 34.8247 56.5678 21.9595H45.0552C45.0552 28.1592 41.0051 32.1219 33.5597 36.8154C30.2498 38.9019 25.7329 41.4363 22.1886 43.9315C18.4969 46.5305 14.6651 49.8465 12.3949 54.4228L22.7083 59.5389ZM56.5678 21.9595C56.5678 14.7376 53.9311 7.85535 48.5699 2.7995C43.2116 -2.2536 35.613 -5.03757 26.4624 -5.03757V6.47504C33.2681 6.47504 37.8442 8.50911 40.6713 11.1752C43.4955 13.8386 45.0552 17.5767 45.0552 21.9595H56.5678ZM26.4624 -5.03757C18.0204 -5.03757 10.5226 -2.64664 4.80702 2.1301C-0.933536 6.92768 -4.41596 13.7508 -5.45956 21.7312L5.95586 23.224C6.67369 17.7346 8.94181 13.6783 12.1897 10.9639C15.4626 8.22865 20.1912 6.47504 26.4624 6.47504V-5.03757ZM0.248151 28.2339H16.2046V16.7213H0.248151V28.2339ZM21.8826 23.4239C22.2171 21.417 22.8234 20.5409 23.2406 20.1563C23.5885 19.8356 24.3728 19.3231 26.3587 19.3231V7.8105C22.2315 7.8105 18.405 8.95584 15.4373 11.6917C12.5389 14.3637 11.1247 17.943 10.5266 21.5312L21.8826 23.4239ZM26.3587 19.3231C27.9586 19.3231 28.496 19.766 28.6268 19.8957C28.7491 20.0169 29.2024 20.5405 29.2024 22.1667H40.715C40.715 18.3015 39.5622 14.5251 36.7315 11.7192C33.9094 8.92185 30.1468 7.8105 26.3587 7.8105V19.3231ZM29.2024 22.1667C29.2024 23.0173 28.8678 24.1512 26.1627 26.1501C24.8344 27.1317 23.1987 28.1236 21.2047 29.2704C19.3016 30.3649 16.9964 31.6418 14.7668 32.9984C10.2554 35.7433 5.21253 39.2957 1.3289 44.4738C-2.65412 49.7845 -5.19731 56.5046 -5.19731 65.1663H6.31529C6.31529 58.9595 8.07206 54.6706 10.539 51.3814C13.1053 47.9597 16.6623 45.3212 20.7509 42.8336C22.8212 41.5739 24.816 40.4742 26.9441 39.2503C28.9813 38.0787 31.108 36.8106 33.0047 35.4091C36.7495 32.6418 40.715 28.5173 40.715 22.1667H29.2024ZM-5.19731 65.1663V69.1036H6.31529V65.1663H-5.19731Z" fill="#FFF7E1" mask="url(#path-1-outside-1_1_449)"/>
</g>
<defs>
<linearGradient id="paint0_linear_1_449" x1="26" y1="8.5" x2="26" y2="100" gradientUnits="userSpaceOnUse">
<stop stop-color="#FFBE2E" stop-opacity="0.76"/>
<stop offset="1" stop-color="#FFBE2E" stop-opacity="0"/>
</linearGradient>
</defs>
</svg>
