<svg width="55" height="71" viewBox="0 0 55 71" fill="none" xmlns="http://www.w3.org/2000/svg">
<g opacity="0.25">
<mask id="path-1-outside-1_1_479" maskUnits="userSpaceOnUse" x="-7" y="-6.5" width="68" height="83" fill="black">
<rect fill="white" x="-7" y="-6.5" width="68" height="83"/>
<path d="M54.8838 49.2279C54.8838 42.3894 51.9826 37.1051 45.2477 33.6859C50.6356 30.8883 53.1224 26.6402 53.1224 20.527C53.1224 9.64756 44.4188 0.218738 28.2551 0.218738C13.542 0.218738 3.59513 8.50781 1.8337 21.9776H17.6866C18.6191 16.3824 21.9347 13.0668 28.1515 13.0668C33.8503 13.0668 37.1659 16.0716 37.1659 20.7342C37.1659 24.2571 35.1972 28.7124 24.525 28.7124H20.8986V40.2135H25.4576C36.1297 40.2135 38.9273 44.0472 38.9273 48.5026C38.9273 54.2013 34.99 57.3097 28.0479 57.3097C21.1058 57.3097 17.4793 53.6833 16.4432 47.8809H0.486723C2.35176 61.6615 12.8167 70.1578 28.1515 70.1578C45.6622 70.1578 54.8838 60.6254 54.8838 49.2279Z"/>
</mask>
<path d="M54.8838 49.2279C54.8838 42.3894 51.9826 37.1051 45.2477 33.6859C50.6356 30.8883 53.1224 26.6402 53.1224 20.527C53.1224 9.64756 44.4188 0.218738 28.2551 0.218738C13.542 0.218738 3.59513 8.50781 1.8337 21.9776H17.6866C18.6191 16.3824 21.9347 13.0668 28.1515 13.0668C33.8503 13.0668 37.1659 16.0716 37.1659 20.7342C37.1659 24.2571 35.1972 28.7124 24.525 28.7124H20.8986V40.2135H25.4576C36.1297 40.2135 38.9273 44.0472 38.9273 48.5026C38.9273 54.2013 34.99 57.3097 28.0479 57.3097C21.1058 57.3097 17.4793 53.6833 16.4432 47.8809H0.486723C2.35176 61.6615 12.8167 70.1578 28.1515 70.1578C45.6622 70.1578 54.8838 60.6254 54.8838 49.2279Z" fill="url(#paint0_linear_1_479)"/>
<path d="M45.2477 33.6859L42.5951 28.5772L32.6454 33.7434L42.6419 38.8186L45.2477 33.6859ZM1.8337 21.9776L-3.87401 21.2312L-4.72436 27.7339H1.8337V21.9776ZM17.6866 21.9776V27.7339H22.5629L23.3645 22.9239L17.6866 21.9776ZM20.8986 28.7124V22.9561H15.1423V28.7124H20.8986ZM20.8986 40.2135H15.1423V45.9698H20.8986V40.2135ZM16.4432 47.8809L22.1099 46.869L21.2626 42.1246H16.4432V47.8809ZM0.486723 47.8809V42.1246H-6.10111L-5.21758 48.6529L0.486723 47.8809ZM60.6401 49.2279C60.6401 44.9811 59.7323 40.8759 57.523 37.2059C55.3081 33.5267 52.014 30.6654 47.8536 28.5532L42.6419 38.8186C45.2164 40.1256 46.7402 41.6161 47.6597 43.1435C48.5847 44.6801 49.1275 46.6362 49.1275 49.2279H60.6401ZM47.9003 38.7946C51.352 37.0024 54.2068 34.5617 56.1519 31.294C58.0902 28.0376 58.8787 24.3741 58.8787 20.527H47.3661C47.3661 22.7931 46.9111 24.3102 46.2592 25.4055C45.6139 26.4896 44.5314 27.5718 42.5951 28.5772L47.9003 38.7946ZM58.8787 20.527C58.8787 13.4922 56.0356 6.82825 50.567 1.98417C45.1203 -2.84048 37.4549 -5.53757 28.2551 -5.53757V5.97504C35.219 5.97504 39.9872 7.99237 42.9333 10.602C45.8574 13.1922 47.3661 16.6823 47.3661 20.527H58.8787ZM28.2551 -5.53757C19.816 -5.53757 12.2802 -3.1488 6.52112 1.60938C0.731479 6.39284 -2.82573 13.215 -3.87401 21.2312L7.5414 22.724C8.25456 17.2704 10.5515 13.2131 13.8539 10.4846C17.187 7.73082 21.9811 5.97504 28.2551 5.97504V-5.53757ZM1.8337 27.7339H17.6866V16.2213H1.8337V27.7339ZM23.3645 22.9239C23.6837 21.0091 24.2959 20.1396 24.7577 19.7299C25.1818 19.3537 26.0844 18.8231 28.1515 18.8231V7.3105C24.0018 7.3105 20.1382 8.43777 17.1172 11.1181C14.1338 13.765 12.622 17.3509 12.0086 21.0312L23.3645 22.9239ZM28.1515 18.8231C30.0368 18.8231 30.8122 19.3172 31.0285 19.5044C31.1487 19.6084 31.4096 19.8529 31.4096 20.7342H42.9222C42.9222 16.9529 41.5252 13.3637 38.5629 10.7996C35.6968 8.31884 31.965 7.3105 28.1515 7.3105V18.8231ZM31.4096 20.7342C31.4096 21.4013 31.266 21.5337 31.1168 21.6607C30.7708 21.9552 29.2096 22.9561 24.525 22.9561V34.4687C30.5127 34.4687 35.2719 33.242 38.5783 30.428C42.0814 27.4467 42.9222 23.59 42.9222 20.7342H31.4096ZM24.525 22.9561H20.8986V34.4687H24.525V22.9561ZM15.1423 28.7124V40.2135H26.6549V28.7124H15.1423ZM20.8986 45.9698H25.4576V34.4572H20.8986V45.9698ZM25.4576 45.9698C30.2936 45.9698 32.1783 46.8732 32.7549 47.3029C32.9742 47.4664 33.171 47.5974 33.171 48.5026H44.6836C44.6836 44.9525 43.4816 40.9389 39.6342 38.0717C36.1439 35.4707 31.2937 34.4572 25.4576 34.4572V45.9698ZM33.171 48.5026C33.171 49.9147 32.755 50.3391 32.4835 50.5575C32.0177 50.9321 30.7654 51.5534 28.0479 51.5534V63.066C32.2725 63.066 36.4599 62.1332 39.6983 59.5289C43.131 56.7684 44.6836 52.7893 44.6836 48.5026H33.171ZM28.0479 51.5534C25.5905 51.5534 24.3931 50.9289 23.777 50.4007C23.1404 49.8551 22.4624 48.8431 22.1099 46.869L10.7765 48.8928C11.4602 52.7211 13.1134 56.4235 16.2847 59.1417C19.4763 61.8774 23.5632 63.066 28.0479 63.066V51.5534ZM16.4432 42.1246H0.486723V53.6372H16.4432V42.1246ZM-5.21758 48.6529C-4.10614 56.8652 -0.35986 63.8139 5.65276 68.6665C11.6261 73.4874 19.4252 75.9141 28.1515 75.9141V64.4015C21.543 64.4015 16.4423 62.5801 12.8832 59.7076C9.36335 56.8669 6.94463 52.6772 6.19102 47.1089L-5.21758 48.6529ZM28.1515 75.9141C37.9266 75.9141 46.0365 73.2464 51.8052 68.3588C57.6301 63.4236 60.6401 56.5658 60.6401 49.2279H49.1275C49.1275 53.2875 47.5267 56.8946 44.3631 59.575C41.1433 62.303 35.8871 64.4015 28.1515 64.4015V75.9141Z" fill="#F3F3F3" mask="url(#path-1-outside-1_1_479)"/>
</g>
<defs>
<linearGradient id="paint0_linear_1_479" x1="28" y1="-8.43605e-08" x2="28" y2="68.5" gradientUnits="userSpaceOnUse">
<stop stop-opacity="0.8"/>
<stop offset="1" stop-opacity="0.16"/>
</linearGradient>
</defs>
</svg>
